# xmcd
#
# Track frame offsets:
#	150
#	17060
#	33793
#	52046
#	68403
#	84350
#	99295
#	118417
#	134085
#	146999
#	159247
#	173945
#	194271
#	205690
#
# Disc length: 2992 seconds
#
# Revision: 0
# Processed by: cddbd v1.5.2PL0 Copyright (c) Steve Scherf et al.
# Submitted via: EasyCDDAExtractor 2010.6.0.0
#
DISCID=bf0bae0e
DTITLE=KENNY ROGERS - BEST OF
DYEAR=2000
DGENRE=COUNTRY
TTITLE0=LADY
TTITLE1=DON'T FALL IN LOVE WITH A DREAMER
TTITLE2=SOMETHING'S BURNING
TTITLE3=YOU DECORATED MY LIFE
TTITLE4=LUCILLE
TTITLE5=TELL IT ALL BROTHER
TTITLE6=SHE BELIEVES IN ME
TTITLE7=THE GAMBLER
TTITLE8=RUBY, DON'T TAKE YOUR LOVE TO TOWN
TTITLE9=RUBEN JAMES
TTITLE10=HEED THE CALL
TTITLE11=COWARD OF THE COUNTY
TTITLE12=POEM FOR MY LITTLE LADY
TTITLE13=ISLAND IN THE STREAM (WITH DOLLY PARTON)
EXTD=
EXTT0=
EXTT1=
EXTT2=
EXTT3=
EXTT4=
EXTT5=
EXTT6=
EXTT7=
EXTT8=
EXTT9=
EXTT10=
EXTT11=
EXTT12=
EXTT13=
PLAYORDER=
